<svg xmlns="http://www.w3.org/2000/svg" viewBox="0 0 64 64">
  <rect width="64" height="64" rx="12" fill="#05080F"/>
  <g transform="translate(8 18) scale(.99)">
    <path fill-rule="evenodd" clip-rule="evenodd" d="M0 7.85981C5.09416 3.06596 12.3085 0 19.8015 0C35.5733 0 48.359 12.9837 48.359 29H39.3088C38.8945 19.4053 31.2343 11.6584 21.7203 11.6584C16.849 11.6584 12.4637 13.6893 9.2882 16.9593L2.41349 10.1659C1.24738 8.99283 0 7.85981 0 7.85981ZM37.0778 29H29.2753C29.2761 28.9549 29.2765 28.9097 29.2765 28.8644C29.2765 24.5984 25.8388 21.1401 21.5983 21.1401C17.3577 21.1401 13.9201 24.5984 13.9201 28.8644C13.9201 28.9097 13.9205 28.9549 13.9212 29H6.36279C6.77441 20.5891 13.4928 13.9004 21.7203 13.9004C29.9478 13.9004 36.6662 20.5891 37.0778 29Z" fill="#F1EFEF"/>
  </g>
</svg>
